<svg xmlns="http://www.w3.org/2000/svg" width="32" height="32" viewBox="0 0 32 32">
  <path id="Path_37" data-name="Path 37" d="M36.177-108.239,25.633-97.7l-5.744-5.728-2.256,2.256,8,8,12.8-12.8Zm-7.344-8.928a16.006,16.006,0,0,0-16,16,16.006,16.006,0,0,0,16,16,16.006,16.006,0,0,0,16-16A16.006,16.006,0,0,0,28.833-117.167Zm0,28.8a12.8,12.8,0,0,1-12.8-12.8,12.8,12.8,0,0,1,12.8-12.8,12.8,12.8,0,0,1,12.8,12.8A12.8,12.8,0,0,1,28.833-88.367Z" transform="translate(-12.832 117.167)" fill="#36b528"/>
</svg>
